<mxfile host="app.diagrams.net" modified="2022-04-29T08:41:16.858Z" agent="5.0 (Macintosh; Intel Mac OS X 10_15_7) AppleWebKit/537.36 (KHTML, like Gecko) Chrome/100.0.4896.127 Safari/537.36" etag="DeQomelQ63o6hf-ccPQa" version="17.5.0" type="github">
  <diagram id="K5UAVniuJJZnfVVCIcNx" name="Page-1">
    <mxGraphModel dx="946" dy="503" grid="1" gridSize="10" guides="1" tooltips="1" connect="1" arrows="1" fold="1" page="1" pageScale="1" pageWidth="850" pageHeight="1100" math="0" shadow="0">
      <root>
        <mxCell id="0" />
        <mxCell id="1" parent="0" />
        <mxCell id="W639tX8yxdCmrHc6JWqB-2" value="" style="rounded=1;whiteSpace=wrap;html=1;" vertex="1" parent="1">
          <mxGeometry x="200" y="90" width="280" height="410" as="geometry" />
        </mxCell>
        <mxCell id="W639tX8yxdCmrHc6JWqB-7" value="" style="rounded=1;whiteSpace=wrap;html=1;" vertex="1" parent="1">
          <mxGeometry x="650" y="90" width="280" height="410" as="geometry" />
        </mxCell>
        <mxCell id="W639tX8yxdCmrHc6JWqB-13" style="edgeStyle=orthogonalEdgeStyle;rounded=0;orthogonalLoop=1;jettySize=auto;html=1;" edge="1" parent="1" source="W639tX8yxdCmrHc6JWqB-1" target="W639tX8yxdCmrHc6JWqB-5">
          <mxGeometry relative="1" as="geometry" />
        </mxCell>
        <mxCell id="W639tX8yxdCmrHc6JWqB-15" style="edgeStyle=orthogonalEdgeStyle;rounded=0;orthogonalLoop=1;jettySize=auto;html=1;entryX=0;entryY=0.5;entryDx=0;entryDy=0;" edge="1" parent="1" source="W639tX8yxdCmrHc6JWqB-1" target="W639tX8yxdCmrHc6JWqB-14">
          <mxGeometry relative="1" as="geometry" />
        </mxCell>
        <mxCell id="W639tX8yxdCmrHc6JWqB-17" style="edgeStyle=orthogonalEdgeStyle;rounded=0;orthogonalLoop=1;jettySize=auto;html=1;entryX=1;entryY=0.5;entryDx=0;entryDy=0;" edge="1" parent="1" source="W639tX8yxdCmrHc6JWqB-1" target="W639tX8yxdCmrHc6JWqB-4">
          <mxGeometry relative="1" as="geometry" />
        </mxCell>
        <mxCell id="W639tX8yxdCmrHc6JWqB-18" style="edgeStyle=orthogonalEdgeStyle;rounded=0;orthogonalLoop=1;jettySize=auto;html=1;entryX=0.983;entryY=0.381;entryDx=0;entryDy=0;entryPerimeter=0;" edge="1" parent="1" source="W639tX8yxdCmrHc6JWqB-1" target="W639tX8yxdCmrHc6JWqB-3">
          <mxGeometry relative="1" as="geometry" />
        </mxCell>
        <mxCell id="W639tX8yxdCmrHc6JWqB-20" style="edgeStyle=orthogonalEdgeStyle;rounded=0;orthogonalLoop=1;jettySize=auto;html=1;entryX=1;entryY=0.5;entryDx=0;entryDy=0;" edge="1" parent="1" source="W639tX8yxdCmrHc6JWqB-1" target="W639tX8yxdCmrHc6JWqB-11">
          <mxGeometry relative="1" as="geometry" />
        </mxCell>
        <mxCell id="W639tX8yxdCmrHc6JWqB-1" value="Professional Developer" style="shape=umlActor;verticalLabelPosition=bottom;verticalAlign=top;html=1;" vertex="1" parent="1">
          <mxGeometry x="550" y="140" width="30" height="60" as="geometry" />
        </mxCell>
        <mxCell id="W639tX8yxdCmrHc6JWqB-3" value="Config Connector for WeChat" style="ellipse;whiteSpace=wrap;html=1;" vertex="1" parent="1">
          <mxGeometry x="230" y="130" width="120" height="80" as="geometry" />
        </mxCell>
        <mxCell id="W639tX8yxdCmrHc6JWqB-4" value="Submit a workflow" style="ellipse;whiteSpace=wrap;html=1;" vertex="1" parent="1">
          <mxGeometry x="230" y="250" width="120" height="80" as="geometry" />
        </mxCell>
        <mxCell id="W639tX8yxdCmrHc6JWqB-5" value="create a workflow locally" style="ellipse;whiteSpace=wrap;html=1;" vertex="1" parent="1">
          <mxGeometry x="710" y="160" width="120" height="80" as="geometry" />
        </mxCell>
        <mxCell id="W639tX8yxdCmrHc6JWqB-8" value="Serverless Orchestration Platform" style="text;html=1;strokeColor=none;fillColor=none;align=center;verticalAlign=middle;whiteSpace=wrap;rounded=0;" vertex="1" parent="1">
          <mxGeometry x="230" y="110" width="240" as="geometry" />
        </mxCell>
        <mxCell id="W639tX8yxdCmrHc6JWqB-9" value="Local develop environment" style="text;html=1;strokeColor=none;fillColor=none;align=center;verticalAlign=middle;whiteSpace=wrap;rounded=0;" vertex="1" parent="1">
          <mxGeometry x="700" y="110" width="180" height="30" as="geometry" />
        </mxCell>
        <mxCell id="W639tX8yxdCmrHc6JWqB-11" value="Create Background Job" style="ellipse;whiteSpace=wrap;html=1;" vertex="1" parent="1">
          <mxGeometry x="230" y="380" width="120" height="80" as="geometry" />
        </mxCell>
        <mxCell id="W639tX8yxdCmrHc6JWqB-14" value="Debug a workflow" style="ellipse;whiteSpace=wrap;html=1;" vertex="1" parent="1">
          <mxGeometry x="710" y="300" width="120" height="80" as="geometry" />
        </mxCell>
        <mxCell id="W639tX8yxdCmrHc6JWqB-19" value="&amp;lt;&amp;lt;include&amp;gt;&amp;gt;" style="html=1;verticalAlign=bottom;labelBackgroundColor=none;endArrow=open;endFill=0;dashed=1;rounded=0;exitX=0.5;exitY=0;exitDx=0;exitDy=0;entryX=0.5;entryY=1;entryDx=0;entryDy=0;" edge="1" parent="1" source="W639tX8yxdCmrHc6JWqB-11" target="W639tX8yxdCmrHc6JWqB-4">
          <mxGeometry x="-0.2" width="160" relative="1" as="geometry">
            <mxPoint x="490" y="310" as="sourcePoint" />
            <mxPoint x="650" y="310" as="targetPoint" />
            <mxPoint as="offset" />
          </mxGeometry>
        </mxCell>
        <mxCell id="W639tX8yxdCmrHc6JWqB-21" value="&amp;lt;&amp;lt;include&amp;gt;&amp;gt;" style="html=1;verticalAlign=bottom;labelBackgroundColor=none;endArrow=open;endFill=0;dashed=1;rounded=0;exitX=0.5;exitY=0;exitDx=0;exitDy=0;entryX=0.5;entryY=1;entryDx=0;entryDy=0;" edge="1" parent="1" source="W639tX8yxdCmrHc6JWqB-4" target="W639tX8yxdCmrHc6JWqB-3">
          <mxGeometry width="160" relative="1" as="geometry">
            <mxPoint x="300" y="230" as="sourcePoint" />
            <mxPoint x="460" y="230" as="targetPoint" />
            <Array as="points">
              <mxPoint x="290" y="240" />
            </Array>
            <mxPoint as="offset" />
          </mxGeometry>
        </mxCell>
      </root>
    </mxGraphModel>
  </diagram>
</mxfile>
